<svg xmlns="http://www.w3.org/2000/svg"  viewBox="0 0 32 32" width="32px" height="32px"><path d="M 16 9 L 13.34375 13.96875 L 11.71875 10.75 C 11.484375 10.285156 10.992188 9.96875 10.46875 9.96875 L 0 9.96875 L 0.9375 11.375 C 1.191406 11.757813 1.601563 11.96875 2.0625 11.96875 L 9 11.96875 C 9.5 11.96875 9.945313 12.25 10.1875 12.6875 L 13 18 L 16 13 L 19 18 L 21.78125 12.6875 C 22.023438 12.25 22.46875 11.96875 22.96875 11.96875 L 29.9375 11.96875 C 30.398438 11.96875 30.808594 11.757813 31.0625 11.375 L 32 9.96875 L 21.53125 9.96875 C 21.007813 9.96875 20.515625 10.285156 20.28125 10.75 L 18.65625 13.96875 Z M 1.71875 13 L 2.625 14.375 C 2.878906 14.757813 3.320313 15 3.78125 15 L 10.25 15 L 9.5625 13.625 C 9.304688 13.242188 8.867188 13 8.40625 13 Z M 23.5 13 C 23.039063 13 22.628906 13.242188 22.375 13.625 L 21.65625 15 L 28.21875 15 C 28.679688 15 29.121094 14.757813 29.375 14.375 L 30.28125 13 Z M 16 15 L 13 20 L 11.21875 16.6875 C 10.972656 16.257813 10.492188 16 10 16 L 4 16 L 4.9375 17.375 C 5.191406 17.757813 5.601563 18 6.0625 18 L 8.84375 18 C 9.320313 18 9.746094 18.253906 10 18.65625 L 13 24 L 16 18.90625 L 19 24 L 22 18.65625 C 22.253906 18.253906 22.679688 18 23.15625 18 L 25.9375 18 C 26.398438 18 26.804688 17.757813 27.0625 17.375 L 28 16 L 22 16 C 21.507813 16 21.027344 16.257813 20.78125 16.6875 L 19 20 Z"/></svg>