<svg xmlns="http://www.w3.org/2000/svg"  viewBox="0 0 48 48" width="48px" height="48px"><path d="M 10.46875 2 C 4.44375 2.091 1.9569687 8.9672344 1.0429688 12.740234 C 0.42196875 13.288234 0.0234375 14.080609 0.0234375 14.974609 C 0.0234375 16.625609 1.3607656 17.964844 3.0097656 17.964844 C 4.6587656 17.964844 5.9941406 16.7205 5.9941406 15.1875 L 5.9941406 14.974609 C 5.9941406 14.806609 5.9713125 14.643422 5.9453125 14.482422 C 6.2253125 14.304422 6.4979062 14.186531 6.7539062 14.144531 C 7.2399062 14.062531 7.6908281 14.238062 8.1738281 14.539062 C 5.5188281 23.014063 6.8004219 29.617453 11.982422 34.189453 L 11.982422 34.482422 C 11.982422 35.648422 12.479047 36.757781 13.373047 37.550781 L 21.193359 44.011719 C 22.005359 44.681719 22.998188 45.017578 23.992188 45.017578 C 24.986187 45.017578 25.981016 44.682719 26.791016 44.011719 L 34.640625 37.527344 C 35.504625 36.756344 36.001953 35.646422 36.001953 34.482422 L 36.001953 34.111328 C 41.180953 29.538328 42.461641 22.934891 39.806641 14.462891 C 40.289641 14.162891 40.741563 13.988406 41.226562 14.066406 C 41.484563 14.109406 41.758969 14.231109 42.042969 14.412109 C 42.007969 14.595109 41.984375 14.781609 41.984375 14.974609 C 41.984375 16.625609 43.321703 17.964844 44.970703 17.964844 C 46.619703 17.964844 47.957031 16.7205 47.957031 15.1875 L 47.957031 14.974609 C 47.959031 14.102609 47.579375 13.325297 46.984375 12.779297 C 46.128375 9.0212969 43.738547 2.1525469 37.685547 2.0605469 C 35.045547 2.0115469 33.143844 3.0766719 31.839844 4.1386719 C 30.142844 3.2596719 28.000234 2.7660938 25.490234 2.6210938 L 25.490234 2.5898438 L 24.023438 2.5566406 L 23.994141 2.5566406 L 23.990234 2.5566406 L 22.480469 2.5566406 L 22.480469 2.5898438 C 20.106469 2.7188438 17.961109 3.258125 16.162109 4.203125 C 14.950109 3.144125 13.12175 1.927 10.46875 2 z M 37.640625 5.0605469 C 40.973625 5.1115469 42.763578 8.9442344 43.642578 11.865234 C 43.016578 11.467234 42.375844 11.217422 41.714844 11.107422 C 39.687844 10.771422 38.126016 11.938453 37.291016 12.564453 L 36.259766 13.330078 L 36.619141 14.369141 C 38.859141 20.848141 38.660906 25.883203 36.003906 29.658203 L 36.009766 17.121094 C 36.009766 16.560094 35.777047 16.021625 35.373047 15.640625 C 34.958047 15.247625 34.397891 15.056422 33.837891 15.107422 L 25.554688 15.898438 L 25.498047 5.6035156 C 27.911047 5.7595156 29.818687 6.3035156 31.179688 7.2285156 L 32.189453 7.9140625 L 33.066406 7.0644531 C 34.046406 6.1134531 35.451625 4.9775469 37.640625 5.0605469 z M 13.955078 17.095703 L 23.884766 18.066406 L 34.011719 17.121094 L 34.003906 31.875 C 33.973906 31.902 33.947969 31.930031 33.917969 31.957031 L 34.003906 32.058594 L 34.003906 34.482422 C 34.001906 35.076422 33.749844 35.642766 33.339844 36.009766 L 25.517578 42.470703 C 24.634578 43.201703 23.351797 43.198703 22.466797 42.470703 L 14.673828 36.03125 C 14.235828 35.64025 13.984375 35.076469 13.984375 34.480469 L 13.980469 32.132812 L 14.066406 32.033203 C 14.036406 32.007203 14.010469 31.978172 13.980469 31.951172 L 13.955078 17.095703 z M 17.330078 19 C 15.060078 19 14 23.890625 14 23.890625 C 14 23.890625 15.109297 28 16.779297 28 C 20.669297 28 24 25.519531 24 25.519531 C 24 25.519531 27.330703 28 31.220703 28 C 32.890703 28 34 23.890625 34 23.890625 C 34 23.890625 32.939922 19 30.669922 19 C 28.999922 19 24 23.789062 24 23.789062 C 24 23.789062 19.000078 19 17.330078 19 z M 17.25 22 C 17.25 22 17.887359 22.067281 18.693359 22.238281 C 18.277359 22.504281 18 22.969 18 23.5 C 18 24.328 18.672 25 19.5 25 C 20.328 25 21 24.328 21 23.5 C 21 23.305 20.959578 23.120219 20.892578 22.949219 C 21.532578 23.275219 22 23.702 22 24.25 C 22 25.5 19.33 26 18 26 C 16.67 26 16 24 16 24 C 16 24 16 23 17.25 22 z M 30.75 22 C 32 23 32 24 32 24 C 32 24 31.33 26 30 26 C 28.67 26 26 25.5 26 24.25 C 26 23.702 26.467422 23.275219 27.107422 22.949219 C 27.040422 23.120219 27 23.305 27 23.5 C 27 24.328 27.672 25 28.5 25 C 29.328 25 30 24.328 30 23.5 C 30 22.969 29.722641 22.504281 29.306641 22.238281 C 30.112641 22.067281 30.75 22 30.75 22 z M 17 31 C 17 31 19.334922 36.086125 22.419922 37.703125 C 22.419922 37.703125 22.870766 38 24.009766 38 C 25.148766 38 25.597656 37.703125 25.597656 37.703125 C 28.683656 36.086125 31 31 31 31 C 29 32 27.323172 32 26.201172 32 C 25.079172 32 24.041016 32.75 24.041016 32.75 C 24.041016 32.75 23.002859 32 21.880859 32 C 20.758859 32 19 32 17 31 z M 19 32.75 C 19 32.75 22 34 24 34 C 25.972 34.327 27.796 33.238 29 32.75 C 29 32.75 27.653328 34.359406 26.611328 35.066406 C 26.098328 35.413406 25.507047 35.726719 24.873047 35.886719 C 24.595047 35.959719 24.298906 36 24.003906 36 C 23.708906 36 23.412766 35.959719 23.134766 35.886719 C 22.500766 35.726719 21.909484 35.413406 21.396484 35.066406 C 20.353484 34.359406 19 32.75 19 32.75 z"/></svg>