<svg xmlns="http://www.w3.org/2000/svg"  viewBox="0 0 48 48" width="48px" height="48px"><path d="M 27.5 4 C 26.926 4 26.401391 4.32675 26.150391 4.84375 L 25.074219 7.0546875 C 24.716865 7.0334396 24.362598 7 24 7 C 14.074 7 5.9980469 15.075 5.9980469 25 C 5.9980469 28.789 7.1824531 32.302078 9.1894531 35.205078 L 10.734375 31.982422 C 9.631375 29.895422 8.9980469 27.521 8.9980469 25 C 8.9980469 16.852973 15.531511 10.21708 23.632812 10.019531 L 8.1503906 41.84375 C 7.9233906 42.30875 7.9545156 42.858875 8.2285156 43.296875 C 8.5035156 43.733875 8.983 44 9.5 44 L 11.5 44 C 12.071 44 12.593703 43.675109 12.845703 43.162109 L 19 31 L 26.5 31 L 26.5 33 C 26.5 33.191 26.60925 33.367219 26.78125 33.449219 C 26.95625 33.535219 27.164547 33.507625 27.310547 33.390625 L 32.3125 29.388672 C 32.4325 29.294672 32.5 29.152 32.5 29 C 32.5 28.848 32.4315 28.704375 32.3125 28.609375 L 27.3125 24.609375 C 27.1615 24.488375 26.957109 24.464875 26.787109 24.546875 C 26.610109 24.632875 26.5 24.809 26.5 25 L 26.5 27 L 21 27 L 26 17 L 26 22.720703 C 26.841 22.348703 27.8375 22.467828 28.5625 23.048828 L 32 25.798828 L 32 12.332031 C 36.199338 14.993529 39.001953 19.671235 39.001953 25 C 39.001953 33.271 32.271 40 24 40 C 21.65 40 19.431219 39.441609 17.449219 38.474609 L 16.080078 41.140625 C 18.474078 42.319625 21.156 43 24 43 C 33.926 43 42.001953 34.925 42.001953 25 C 42.001953 17.950263 37.917647 11.850592 32 8.8984375 L 32 5.5 C 32 4.672 31.328 4 30.5 4 L 27.5 4 z M 32 32.201172 L 28.5625 34.951172 C 28.1215 35.304172 27.566 35.5 27 35.5 C 26.76 35.5 26.524922 35.452766 26.294922 35.384766 C 26.568922 35.755766 27.004 36 27.5 36 L 30.5 36 C 31.328 36 32 35.328 32 34.5 L 32 32.201172 z"/></svg>